<mxfile host="app.diagrams.net" agent="Mozilla/5.0 (Windows NT 10.0; Win64; x64) AppleWebKit/537.36 (KHTML, like Gecko) Chrome/128.0.0.0 Safari/537.36" version="24.7.12">
  <diagram name="Page-1" id="m40n8pm2fc7japglgTBe">
    <mxGraphModel dx="1121" dy="352" grid="0" gridSize="10" guides="1" tooltips="1" connect="1" arrows="1" fold="1" page="0" pageScale="1" pageWidth="850" pageHeight="1100" math="0" shadow="0">
      <root>
        <mxCell id="0" />
        <mxCell id="1" parent="0" />
        <mxCell id="nqCIsX4LDL96y5m1TIFh-12" style="edgeStyle=none;curved=1;rounded=0;orthogonalLoop=1;jettySize=auto;html=1;fontSize=12;startSize=8;endSize=8;strokeWidth=2;dashed=1;dashPattern=8 8;fillColor=#ffe6cc;strokeColor=#E68D09;" edge="1" parent="1">
          <mxGeometry relative="1" as="geometry">
            <mxPoint x="-25" y="294" as="sourcePoint" />
            <mxPoint x="174" y="294" as="targetPoint" />
            <Array as="points">
              <mxPoint x="76" y="294" />
            </Array>
          </mxGeometry>
        </mxCell>
        <mxCell id="nqCIsX4LDL96y5m1TIFh-1" value="&lt;font style=&quot;font-size: 20px;&quot;&gt;Client 1&lt;/font&gt;" style="rounded=0;whiteSpace=wrap;html=1;fillColor=#ffe6cc;strokeColor=#d79b00;strokeWidth=4;" vertex="1" parent="1">
          <mxGeometry x="-185" y="263" width="160" height="80" as="geometry" />
        </mxCell>
        <mxCell id="nqCIsX4LDL96y5m1TIFh-5" style="edgeStyle=none;curved=1;rounded=0;orthogonalLoop=1;jettySize=auto;html=1;entryX=1;entryY=0;entryDx=0;entryDy=0;fontSize=12;startSize=8;endSize=8;exitX=0.5;exitY=1;exitDx=0;exitDy=0;strokeWidth=2;" edge="1" parent="1" source="nqCIsX4LDL96y5m1TIFh-3" target="nqCIsX4LDL96y5m1TIFh-1">
          <mxGeometry relative="1" as="geometry" />
        </mxCell>
        <mxCell id="nqCIsX4LDL96y5m1TIFh-6" style="edgeStyle=none;curved=1;rounded=0;orthogonalLoop=1;jettySize=auto;html=1;entryX=0;entryY=0;entryDx=0;entryDy=0;fontSize=12;startSize=8;endSize=8;exitX=0.5;exitY=1;exitDx=0;exitDy=0;strokeWidth=2;" edge="1" parent="1" source="nqCIsX4LDL96y5m1TIFh-3" target="nqCIsX4LDL96y5m1TIFh-4">
          <mxGeometry relative="1" as="geometry" />
        </mxCell>
        <mxCell id="nqCIsX4LDL96y5m1TIFh-3" value="&lt;font style=&quot;font-size: 20px;&quot;&gt;Server&lt;/font&gt;" style="rounded=0;whiteSpace=wrap;html=1;fillColor=#dae8fc;strokeColor=#6c8ebf;strokeWidth=4;" vertex="1" parent="1">
          <mxGeometry x="-3" y="106" width="160" height="80" as="geometry" />
        </mxCell>
        <mxCell id="nqCIsX4LDL96y5m1TIFh-10" style="edgeStyle=none;curved=1;rounded=0;orthogonalLoop=1;jettySize=auto;html=1;fontSize=12;startSize=8;endSize=8;dashed=1;dashPattern=8 8;strokeColor=#009900;strokeWidth=2;" edge="1" parent="1" target="nqCIsX4LDL96y5m1TIFh-3">
          <mxGeometry relative="1" as="geometry">
            <mxPoint x="212" y="262" as="sourcePoint" />
          </mxGeometry>
        </mxCell>
        <mxCell id="nqCIsX4LDL96y5m1TIFh-15" style="edgeStyle=none;curved=1;rounded=0;orthogonalLoop=1;jettySize=auto;html=1;entryX=1;entryY=0.5;entryDx=0;entryDy=0;fontSize=12;startSize=8;endSize=8;dashed=1;dashPattern=8 8;strokeWidth=2;strokeColor=#E68D09;" edge="1" parent="1">
          <mxGeometry relative="1" as="geometry">
            <mxPoint x="174" y="311" as="sourcePoint" />
            <mxPoint x="-25" y="311" as="targetPoint" />
          </mxGeometry>
        </mxCell>
        <mxCell id="nqCIsX4LDL96y5m1TIFh-4" value="&lt;font style=&quot;font-size: 20px;&quot;&gt;Client 2&lt;/font&gt;" style="rounded=0;whiteSpace=wrap;html=1;fillColor=#ffe6cc;strokeColor=#d79b00;strokeWidth=4;" vertex="1" parent="1">
          <mxGeometry x="174" y="263" width="160" height="80" as="geometry" />
        </mxCell>
        <mxCell id="nqCIsX4LDL96y5m1TIFh-7" value="Sell tickets" style="text;html=1;align=center;verticalAlign=middle;resizable=0;points=[];autosize=1;strokeColor=none;fillColor=none;fontSize=16;" vertex="1" parent="1">
          <mxGeometry x="30" y="215" width="94" height="31" as="geometry" />
        </mxCell>
        <mxCell id="nqCIsX4LDL96y5m1TIFh-8" style="edgeStyle=none;curved=1;rounded=0;orthogonalLoop=1;jettySize=auto;html=1;entryX=0.296;entryY=0.978;entryDx=0;entryDy=0;entryPerimeter=0;fontSize=12;startSize=8;endSize=8;dashed=1;dashPattern=8 8;fontColor=#009900;strokeColor=#009900;strokeWidth=2;" edge="1" parent="1">
          <mxGeometry relative="1" as="geometry">
            <mxPoint x="-62.00349949477942" y="263" as="sourcePoint" />
            <mxPoint x="37.0499999999999" y="184.24" as="targetPoint" />
          </mxGeometry>
        </mxCell>
        <mxCell id="nqCIsX4LDL96y5m1TIFh-9" value="Resell tickets" style="text;html=1;align=center;verticalAlign=middle;resizable=0;points=[];autosize=1;strokeColor=none;fillColor=none;fontSize=16;rotation=-40;fontColor=#009900;" vertex="1" parent="1">
          <mxGeometry x="-99" y="205" width="112" height="31" as="geometry" />
        </mxCell>
        <mxCell id="nqCIsX4LDL96y5m1TIFh-11" value="Resell tickets" style="text;html=1;align=center;verticalAlign=middle;resizable=0;points=[];autosize=1;strokeColor=none;fillColor=none;fontSize=16;rotation=40;fontColor=#009900;" vertex="1" parent="1">
          <mxGeometry x="138" y="209" width="112" height="31" as="geometry" />
        </mxCell>
        <mxCell id="nqCIsX4LDL96y5m1TIFh-13" value="&lt;font color=&quot;#e68d09&quot;&gt;Scalping ticket&lt;/font&gt;" style="text;html=1;align=center;verticalAlign=middle;resizable=0;points=[];autosize=1;strokeColor=none;fillColor=none;fontSize=16;" vertex="1" parent="1">
          <mxGeometry x="6" y="263" width="121" height="31" as="geometry" />
        </mxCell>
        <mxCell id="nqCIsX4LDL96y5m1TIFh-21" value="" style="group" vertex="1" connectable="0" parent="1">
          <mxGeometry x="-32" y="393" width="201.12135922330097" height="152" as="geometry" />
        </mxCell>
        <mxCell id="nqCIsX4LDL96y5m1TIFh-25" value="" style="group" vertex="1" connectable="0" parent="nqCIsX4LDL96y5m1TIFh-21">
          <mxGeometry width="201.12135922330097" height="152" as="geometry" />
        </mxCell>
        <mxCell id="nqCIsX4LDL96y5m1TIFh-16" value="&lt;blockquote style=&quot;margin: 0 0 0 40px; border: none; padding: 0px;&quot;&gt;&lt;br&gt;&lt;/blockquote&gt;" style="rounded=0;whiteSpace=wrap;html=1;align=left;" vertex="1" parent="nqCIsX4LDL96y5m1TIFh-25">
          <mxGeometry width="201" height="152" as="geometry" />
        </mxCell>
        <mxCell id="nqCIsX4LDL96y5m1TIFh-17" style="edgeStyle=none;curved=1;rounded=0;orthogonalLoop=1;jettySize=auto;html=1;fontSize=12;startSize=8;endSize=8;strokeColor=#009900;strokeWidth=2;endArrow=none;endFill=0;dashed=1;" edge="1" parent="nqCIsX4LDL96y5m1TIFh-25">
          <mxGeometry relative="1" as="geometry">
            <mxPoint x="38.94174757281554" y="24.326923076923077" as="sourcePoint" />
            <mxPoint x="12.980582524271846" y="24.326923076923077" as="targetPoint" />
          </mxGeometry>
        </mxCell>
        <mxCell id="nqCIsX4LDL96y5m1TIFh-20" style="edgeStyle=none;curved=1;rounded=0;orthogonalLoop=1;jettySize=auto;html=1;fontSize=12;startSize=8;endSize=8;strokeColor=#E68D09;strokeWidth=2;endArrow=none;endFill=0;dashed=1;" edge="1" parent="nqCIsX4LDL96y5m1TIFh-25">
          <mxGeometry relative="1" as="geometry">
            <mxPoint x="38.94174757281554" y="39.80769230769231" as="sourcePoint" />
            <mxPoint x="12.053398058252428" y="39.80769230769231" as="targetPoint" />
          </mxGeometry>
        </mxCell>
        <mxCell id="nqCIsX4LDL96y5m1TIFh-22" style="edgeStyle=none;curved=1;rounded=0;orthogonalLoop=1;jettySize=auto;html=1;fontSize=12;startSize=8;endSize=8;exitX=0.5;exitY=1;exitDx=0;exitDy=0;strokeWidth=2;endArrow=none;endFill=0;" edge="1" parent="nqCIsX4LDL96y5m1TIFh-25">
          <mxGeometry relative="1" as="geometry">
            <mxPoint x="38.94174757281554" y="106.71000000000001" as="sourcePoint" />
            <mxPoint x="12.053398058252428" y="106.71000000000001" as="targetPoint" />
          </mxGeometry>
        </mxCell>
        <mxCell id="nqCIsX4LDL96y5m1TIFh-24" value="Occurs &lt;br&gt;automatically &lt;br&gt;for n times." style="text;html=1;align=center;verticalAlign=middle;resizable=0;points=[];autosize=1;fontSize=16;strokeColor=none;" vertex="1" parent="nqCIsX4LDL96y5m1TIFh-25">
          <mxGeometry x="62.12135922330097" y="72.99846153846153" width="111" height="70" as="geometry" />
        </mxCell>
        <mxCell id="nqCIsX4LDL96y5m1TIFh-18" value="Occurs when a&lt;br&gt;&amp;nbsp;certain&amp;nbsp;&lt;span style=&quot;background-color: initial;&quot;&gt;condition &lt;br&gt;is met.&lt;/span&gt;" style="text;html=1;align=center;verticalAlign=middle;resizable=0;points=[];autosize=1;fontSize=16;strokeColor=none;" vertex="1" parent="nqCIsX4LDL96y5m1TIFh-25">
          <mxGeometry x="56.001359223300966" y="7.998461538461527" width="139" height="70" as="geometry" />
        </mxCell>
      </root>
    </mxGraphModel>
  </diagram>
</mxfile>
